<svg xmlns="http://www.w3.org/2000/svg" width="361.337" height="74.998" viewBox="0 0 1773 368">
  <defs>
    <style>
      .cls-1 {
        fill: #111;
      }

      .cls-1, .cls-2 {
        fill-rule: evenodd;
      }

      .cls-2 {
        fill: #aaa;
      }
    </style>
  </defs>
  <path id="Zachary_Fetters" data-name="Zachary Fetters" class="cls-1" d="M0.047,311.549H156.3v-18.5l-105.249.25,106-161.25h-139V148.8h86.5Zm256.623,4,22.25-6.75v-77.25c0-33.5-20.25-43.5-42-43.5h-4c-25.75,0-46.75,16.5-49.5,36.25l26-6c2-10.25,8.25-18.25,19.25-18.25,13,0,21.5,9.75,21.75,28l-0.25,14.75c-12,1-24,.5-40.5,5.5-15.5,4.75-31.25,18.25-31.25,38.25,0,11.25,7.25,28.5,30.5,28.5,16.5,0,33.5-9.25,41.5-22.5ZM220.92,296.3c-6.5,0-12.75-4.5-12.75-12,0-9.5,3.5-18.75,17-24.75,11.25-4.25,18-6.75,24.75-8.25l-0.25,26.25C244.17,290.549,229.92,296.3,220.92,296.3Zm183.548-2.75-1.75-13.25c-8.25,5.75-19,11-33.5,11-24.25,0-41.5-19.25-41.5-49.75,0-24,15.5-40.5,34.25-40.5,22.75,0,22.75,14.5,22.75,24.5l22-4.25c-1.5-18.75-19.75-32-42-32-38,0-65.25,26.25-65.25,66.25,0,33.25,23.75,58.5,59.75,58.5C382.718,314.049,398.468,303.549,404.468,293.549Zm80.675-86.25q13.5,0,18.75,8.25c3.75,5.75,4.5,11.5,4.5,24.75l-0.25,71.25h30l0.25-78.75c0-28.5-16.75-43.5-40.5-43.5-18,0-29.5,6.75-37.25,18.25v-83.5l-30,20v167.5h29.75V227.8C462.143,220.8,467.393,207.3,485.143,207.3Zm156.224,108.25,22.25-6.75v-77.25c0-33.5-20.25-43.5-42-43.5h-4c-25.75,0-46.75,16.5-49.5,36.25l26-6c2-10.25,8.25-18.25,19.25-18.25,13,0,21.5,9.75,21.75,28l-0.25,14.75c-12,1-24,.5-40.5,5.5-15.5,4.75-31.25,18.25-31.25,38.25,0,11.25,7.25,28.5,30.5,28.5,16.5,0,33.5-9.25,41.5-22.5Zm-35.75-19.25c-6.5,0-12.75-4.5-12.75-12,0-9.5,3.5-18.75,17-24.75,11.25-4.25,18-6.75,24.75-8.25l-0.25,26.25C628.867,290.549,614.617,296.3,605.617,296.3Zm132.348-85c6.5-.5,8.5,8.75,9.5,15.5l26.75-16v-2c0-13.25-10.25-19.5-18.75-19.5-14.5,0-26.25,12.25-32,28.75l-6.75-31.75-22.5,15v110.25h30v-64.5C725.215,231.8,728.715,220.8,737.965,211.3Zm100.923,118,61.25-137.5h-15l-36.25,81-36.5-81h-32.5l53.25,116-6,13.75c-2.75,5-20,38-39.5,38l-0.25,7.5C810.888,367.049,823.138,360.3,838.888,329.3Zm265.992-99.25V214.8h-55.75V146.3h87.25v-14.25H1014.13v179.5h35v-81.5h55.75Zm106.85,4.25h-52.25c0-21.25,14.75-33.25,28.25-33.25C1203.48,201.049,1211.73,214.549,1211.73,234.3Zm-20.75,79.75c23.5,0,41.5-15.5,47.5-25.5l-1.75-13.25c-8.25,5.75-21,13.5-35.5,13.5h-0.25c-24.75,0-40.25-17-41.5-42h84.25V234.3c-1.75-34.25-31.5-45-52.25-45-36.5,0-60.25,29.75-60.25,64.75,0,30.75,20,60,58.75,60h1Zm155.52-19.5c-2.25-10-1.75-8.5-2.75-12.75-8.75,7-14.75,9.25-22.5,9.25-13.5,0-22.75-10.75-22.75-27.25l0.25-56h41.5v-16h-42v-37.75h-9.75l-19.75,37.75h-17.5v16h17.5l-0.25,60.25c0,28.5,13.5,46,41.5,46C1329.25,314.049,1341.75,302.549,1346.5,294.549Zm99.25,0c-2.25-10-1.75-8.5-2.75-12.75-8.75,7-14.75,9.25-22.5,9.25-13.5,0-22.75-10.75-22.75-27.25l0.25-56h41.5v-16h-42v-37.75h-9.75L1368,191.8h-17.5v16H1368l-0.25,60.25c0,28.5,13.5,46,41.5,46C1428.5,314.049,1441,302.549,1445.75,294.549Zm87.57-60.25h-52.25c0-21.25,14.75-33.25,28.25-33.25C1525.07,201.049,1533.32,214.549,1533.32,234.3Zm-20.75,79.75c23.5,0,41.5-15.5,47.5-25.5l-1.75-13.25c-8.25,5.75-21,13.5-35.5,13.5h-0.25c-24.75,0-40.25-17-41.5-42h84.25V234.3c-1.75-34.25-31.5-45-52.25-45-36.5,0-60.25,29.75-60.25,64.75,0,30.75,20,60,58.75,60h1ZM1633.55,211.3c6.5-.5,8.5,8.75,9.5,15.5l26.75-16v-2c0-13.25-10.25-19.5-18.75-19.5-14.5,0-26.25,12.25-32,28.75l-6.75-31.75-22.5,15v110.25h30v-64.5C1620.8,231.8,1624.3,220.8,1633.55,211.3Zm87.79-23.25c-21.75,0-41,13.25-41,37.75,0,19.5,14.5,34.5,38,39.5l18.5,4.75c10,2.25,13.75,8.75,13.75,14.75,0,10.25-11.5,13.5-22.25,13.5-8.75,0-20.75-7.75-23.75-18l-27,6.75c5.75,18.25,24.5,26,50.5,26,28.5,0,44.5-18.25,44.5-37.5,0-17.75-13.5-30-29.75-34l-15.75-3.75c-15-3.75-24.75-11-24.75-21.25,0-9.75,8.75-15,20.75-15a20.709,20.709,0,0,1,19.75,17.5l26.5-3.75C1763.09,193.549,1746.84,188.049,1721.34,188.049Z"/>
  <path id="Hello_my_name_is..." data-name="Hello, my name is..." class="cls-2" d="M60.453,52.435v-52.5H55.2v24.3H23.4v-24.3h-5.25v52.5H23.4V29.186H55.2V52.435h5.25Zm46.582-16.424c1.425-14.624-7.424-21.3-18.449-21.3S69.612,22.736,69.612,33.836c0,11.85,8.175,19.274,19.2,19.274,5.85,0,12.224-2.325,15.9-6.9l-3.375-3c-2.624,3.3-8.024,5.1-12.524,5.1-7.35,0-13.349-4.575-14.024-12.3h32.248ZM74.787,31.736c0.975-8.025,6.45-12.524,13.874-12.524s13.5,4.425,13.649,12.525H74.787ZM114.4-.063v52.5h5.025v-52.5H114.4Zm15.218,0v52.5h5.025v-52.5h-5.025Zm31.867,14.774c-11.1,0-19.049,7.8-19.049,19.274s8.249,19.049,19.049,19.049c10.949,0,19.049-7.575,19.049-19.049S172.285,14.712,161.486,14.712Zm0,4.575c8.249,0,14.024,6.15,14.024,14.7,0,8.625-5.7,14.324-14.024,14.324-8.175,0-14.025-5.7-14.025-14.324C147.461,25.436,153.236,19.286,161.486,19.286ZM192.528,49.81c0-4.725-7.125-4.425-7.125-.075a2.955,2.955,0,0,0,2.25,3l-2.1,6.525h3.75C190.878,54.685,192.528,51.685,192.528,49.81Zm62.4,2.625V30.986c0-6.525,4.425-11.55,10.949-11.55s10.65,4.8,10.65,11.4v21.6h5.025v-21.6c0-9.75-6.15-16.124-15.6-16.124a14.019,14.019,0,0,0-13.349,8.55c-2.175-6.225-7.725-8.55-13.049-8.55-4.5,0-9.075,1.8-11.475,6.45l-0.225-5.775h-4.725V52.435h5.025V30.986c0-6.525,4.35-11.55,10.875-11.55S249.9,24.461,249.9,30.986V52.435h5.025Zm61.132-37.049-8.625,20.474-4.2,10.649-4.125-10.649-7.874-20.474h-5.625l14.849,36.6-7.8,18.149h5.475l23.474-54.748h-5.549Zm67.5,37.049V31.586c0-11.1-6.9-16.8-16.5-16.8a14.9,14.9,0,0,0-12.9,6.825l-0.15-6.225h-4.8V52.435h5.025V32.261c0-7.125,4.95-12.675,12.149-12.75,7.425,0,12.075,4.2,12.075,12.15V52.435h5.1Zm40.566-29.7c-2.775-5.25-8.849-7.875-14.549-7.875-10.5,0-18.974,7.35-18.974,19.049,0,11.775,8.4,19.274,18.9,19.274a16.967,16.967,0,0,0,14.7-8.1v7.35h4.65V15.387h-4.725v7.35Zm-14.4-3.3c19.124,0,19.124,29.024,0,29.024-7.8,0-14.1-5.775-14.1-14.549C395.622,25.211,401.922,19.436,409.722,19.436Zm60.741,33V30.986c0-6.525,4.424-11.55,10.949-11.55s10.65,4.8,10.65,11.4v21.6h5.025v-21.6c0-9.75-6.15-16.124-15.6-16.124a14.018,14.018,0,0,0-13.349,8.55c-2.175-6.225-7.725-8.55-13.05-8.55-4.5,0-9.074,1.8-11.474,6.45l-0.225-5.775h-4.725V52.435h5.025V30.986c0-6.525,4.35-11.55,10.874-11.55s10.875,5.025,10.875,11.55V52.435h5.025Zm71.219-16.424c1.424-14.624-7.425-21.3-18.45-21.3s-18.974,8.025-18.974,19.124c0,11.85,8.175,19.274,19.2,19.274,5.85,0,12.225-2.325,15.9-6.9l-3.375-3c-2.625,3.3-8.025,5.1-12.525,5.1-7.349,0-13.349-4.575-14.024-12.3h32.249Zm-32.249-4.275c0.975-8.025,6.45-12.524,13.874-12.524s13.5,4.425,13.65,12.525H509.433Zm65.774-16.5v37.2h-5.025v-37.2h5.025Zm-6-11.475c0,4.725,7.124,4.725,7.124,0S569.207-.963,569.207,3.762Zm42.936,15.9c-3.825-3.525-8.4-5.025-13.95-5.025-7.275-.075-14.924,3.15-14.924,10.725,0.075,7.65,7.5,9.3,14.624,10.35,5.925,0.825,10.725,1.725,10.725,6.6,0,5.025-5.925,6.225-10.125,6.225-4.725-.075-10.2-1.725-13.349-6l-3.15,3.45c3.75,5.1,10.049,7.2,16.424,7.2,7.5,0,15.074-3,15.224-10.8,0-9-8.624-10.125-15.3-11.1-4.65-.675-10.049-1.725-10.125-6.075-0.149-4.125,4.65-6.075,10.05-6,3.975,0,7.5.6,10.95,3.75Zm7.665,29.924c0,4.725,7.125,4.725,7.125,0S619.808,44.86,619.808,49.585Zm14.3,0c0,4.725,7.124,4.725,7.124,0S634.11,44.86,634.11,49.585Zm14.3,0c0,4.725,7.125,4.725,7.125,0S648.411,44.86,648.411,49.585Z"/>
</svg>
